<svg xmlns="http://www.w3.org/2000/svg" version="1.1" xmlns:xlink="http://www.w3.org/1999/xlink" xmlns:svgjs="http://svgjs.com/svgjs" width="1920" height="1080" preserveAspectRatio="none" viewBox="0 0 1920 1080"><g mask="url(&quot;#SvgjsMask1017&quot;)" fill="none"><rect width="1920" height="1080" x="0" y="0" fill="rgba(0, 0, 0, 1)"></rect><path d="M787.9 705.78L846.55 705.78L846.55 767.63L787.9 767.63z" fill="rgba(106, 220, 199, 1)"></path><path d="M96.06 1014.35L149.32 1014.35L149.32 1060.2L96.06 1060.2z" fill="rgba(106, 220, 199, 1)"></path><path d="M168.89 249.84L186.57 249.84L186.57 324.3L168.89 324.3z" fill="rgba(106, 220, 199, 1)"></path><path d="M1073.17 874.33 a28.17 28.17 0 1 0 56.34 0 a28.17 28.17 0 1 0 -56.34 0z" stroke="rgba(106, 220, 199, 1)"></path><path d="M1026.76 565.69a60.16 60.16 0 1 0 22.92-118.11z" fill="rgba(106, 220, 199, 1)"></path><path d="M-18.59 846.56 a35.37 35.37 0 1 0 70.74 0 a35.37 35.37 0 1 0 -70.74 0z" fill="rgba(106, 220, 199, 1)"></path><path d="M1197.14 536.05a57.86 57.86 0 1 0-95.09 65.94z" fill="rgba(106, 220, 199, 1)"></path><path d="M372.24 403.52L386.22 403.52L386.22 417.5L372.24 417.5z" fill="rgba(106, 220, 199, 1)"></path><path d="M718.48 856.81L775.14 856.81L775.14 963.21L718.48 963.21z" stroke="rgba(106, 220, 199, 1)"></path><path d="M107.17 944.21a63.86 63.86 0 1 0-5.23-127.61z" stroke="rgba(106, 220, 199, 1)"></path><path d="M504.64 840.17L592.42 840.17L592.42 842.57L504.64 842.57z" fill="rgba(106, 220, 199, 1)"></path><path d="M1189.25 1009.09 a54.18 54.18 0 1 0 108.36 0 a54.18 54.18 0 1 0 -108.36 0z" stroke="rgba(106, 220, 199, 1)"></path><path d="M1468.25 487.51L1563.79 487.51L1563.79 583.05L1468.25 583.05z" stroke="rgba(106, 220, 199, 1)"></path><path d="M300.67 1018.28 a6.76 6.76 0 1 0 13.52 0 a6.76 6.76 0 1 0 -13.52 0z" fill="rgba(106, 220, 199, 1)"></path><path d="M-12.43 351.45 a45.14 45.14 0 1 0 90.28 0 a45.14 45.14 0 1 0 -90.28 0z" fill="rgba(106, 220, 199, 1)"></path><path d="M874.25 1005.5a30.29 30.29 0 1 0-37.01 47.95z" fill="rgba(106, 220, 199, 1)"></path><path d="M1637.15 402.42L1715.96 402.42L1715.96 421.32L1637.15 421.32z" fill="rgba(106, 220, 199, 1)"></path><path d="M219.35 521.37 a2.15 2.15 0 1 0 4.3 0 a2.15 2.15 0 1 0 -4.3 0z" fill="rgba(106, 220, 199, 1)"></path><path d="M1901.95 1070.2 a3 3 0 1 0 6 0 a3 3 0 1 0 -6 0z" fill="rgba(106, 220, 199, 1)"></path><path d="M1226.2 585L1302.12 585L1302.12 660.92L1226.2 660.92z" stroke="rgba(106, 220, 199, 1)"></path><path d="M1420.1 341.6L1524.52 341.6L1524.52 446.02L1420.1 446.02z" fill="rgba(106, 220, 199, 1)"></path><path d="M1122.71 193.56 a24.18 24.18 0 1 0 48.36 0 a24.18 24.18 0 1 0 -48.36 0z" fill="rgba(106, 220, 199, 1)"></path><path d="M1653.72 248.46 a98.32 98.32 0 1 0 196.64 0 a98.32 98.32 0 1 0 -196.64 0z" stroke="rgba(106, 220, 199, 1)"></path></g><defs><mask id="SvgjsMask1017"><rect width="1920" height="1080" fill="#ffffff"></rect></mask></defs></svg>